G04 #@! TF.GenerationSoftware,KiCad,Pcbnew,(5.1.4)-1*
G04 #@! TF.CreationDate,2020-02-18T04:52:29-05:00*
G04 #@! TF.ProjectId,PCB Design,50434220-4465-4736-9967-6e2e6b696361,rev?*
G04 #@! TF.SameCoordinates,Original*
G04 #@! TF.FileFunction,Copper,L1,Top*
G04 #@! TF.FilePolarity,Positive*
%FSLAX46Y46*%
G04 Gerber Fmt 4.6, Leading zero omitted, Abs format (unit mm)*
G04 Created by KiCad (PCBNEW (5.1.4)-1) date 2020-02-18 04:52:29*
%MOMM*%
%LPD*%
G04 APERTURE LIST*
%ADD10C,0.300000*%
%ADD11C,1.665000*%
%ADD12R,1.665000X1.665000*%
%ADD13C,1.524000*%
%ADD14R,1.524000X1.524000*%
%ADD15O,1.600000X1.600000*%
%ADD16R,1.600000X1.600000*%
%ADD17C,0.635000*%
G04 APERTURE END LIST*
D10*
X134537142Y-136582571D02*
X135394285Y-136582571D01*
X134965714Y-138082571D02*
X134965714Y-136582571D01*
X135894285Y-137296857D02*
X136394285Y-137296857D01*
X136608571Y-138082571D02*
X135894285Y-138082571D01*
X135894285Y-136582571D01*
X136608571Y-136582571D01*
X137180000Y-137654000D02*
X137894285Y-137654000D01*
X137037142Y-138082571D02*
X137537142Y-136582571D01*
X138037142Y-138082571D01*
X138537142Y-138082571D02*
X138537142Y-136582571D01*
X139037142Y-137654000D01*
X139537142Y-136582571D01*
X139537142Y-138082571D01*
X141322857Y-136725428D02*
X141394285Y-136654000D01*
X141537142Y-136582571D01*
X141894285Y-136582571D01*
X142037142Y-136654000D01*
X142108571Y-136725428D01*
X142180000Y-136868285D01*
X142180000Y-137011142D01*
X142108571Y-137225428D01*
X141251428Y-138082571D01*
X142180000Y-138082571D01*
X127501428Y-143111142D02*
X127715714Y-143182571D01*
X128072857Y-143182571D01*
X128215714Y-143111142D01*
X128287142Y-143039714D01*
X128358571Y-142896857D01*
X128358571Y-142754000D01*
X128287142Y-142611142D01*
X128215714Y-142539714D01*
X128072857Y-142468285D01*
X127787142Y-142396857D01*
X127644285Y-142325428D01*
X127572857Y-142254000D01*
X127501428Y-142111142D01*
X127501428Y-141968285D01*
X127572857Y-141825428D01*
X127644285Y-141754000D01*
X127787142Y-141682571D01*
X128144285Y-141682571D01*
X128358571Y-141754000D01*
X129001428Y-143182571D02*
X129001428Y-141682571D01*
X129572857Y-141682571D01*
X129715714Y-141754000D01*
X129787142Y-141825428D01*
X129858571Y-141968285D01*
X129858571Y-142182571D01*
X129787142Y-142325428D01*
X129715714Y-142396857D01*
X129572857Y-142468285D01*
X129001428Y-142468285D01*
X130787142Y-141682571D02*
X131072857Y-141682571D01*
X131215714Y-141754000D01*
X131358571Y-141896857D01*
X131430000Y-142182571D01*
X131430000Y-142682571D01*
X131358571Y-142968285D01*
X131215714Y-143111142D01*
X131072857Y-143182571D01*
X130787142Y-143182571D01*
X130644285Y-143111142D01*
X130501428Y-142968285D01*
X130430000Y-142682571D01*
X130430000Y-142182571D01*
X130501428Y-141896857D01*
X130644285Y-141754000D01*
X130787142Y-141682571D01*
X132072857Y-143182571D02*
X132072857Y-141682571D01*
X132930000Y-143182571D01*
X132930000Y-141682571D01*
X133572857Y-143111142D02*
X133787142Y-143182571D01*
X134144285Y-143182571D01*
X134287142Y-143111142D01*
X134358571Y-143039714D01*
X134430000Y-142896857D01*
X134430000Y-142754000D01*
X134358571Y-142611142D01*
X134287142Y-142539714D01*
X134144285Y-142468285D01*
X133858571Y-142396857D01*
X133715714Y-142325428D01*
X133644285Y-142254000D01*
X133572857Y-142111142D01*
X133572857Y-141968285D01*
X133644285Y-141825428D01*
X133715714Y-141754000D01*
X133858571Y-141682571D01*
X134215714Y-141682571D01*
X134430000Y-141754000D01*
X135358571Y-141682571D02*
X135644285Y-141682571D01*
X135787142Y-141754000D01*
X135930000Y-141896857D01*
X136001428Y-142182571D01*
X136001428Y-142682571D01*
X135930000Y-142968285D01*
X135787142Y-143111142D01*
X135644285Y-143182571D01*
X135358571Y-143182571D01*
X135215714Y-143111142D01*
X135072857Y-142968285D01*
X135001428Y-142682571D01*
X135001428Y-142182571D01*
X135072857Y-141896857D01*
X135215714Y-141754000D01*
X135358571Y-141682571D01*
X137501428Y-143182571D02*
X137001428Y-142468285D01*
X136644285Y-143182571D02*
X136644285Y-141682571D01*
X137215714Y-141682571D01*
X137358571Y-141754000D01*
X137430000Y-141825428D01*
X137501428Y-141968285D01*
X137501428Y-142182571D01*
X137430000Y-142325428D01*
X137358571Y-142396857D01*
X137215714Y-142468285D01*
X136644285Y-142468285D01*
X138144285Y-142396857D02*
X138644285Y-142396857D01*
X138858571Y-143182571D02*
X138144285Y-143182571D01*
X138144285Y-141682571D01*
X138858571Y-141682571D01*
X139501428Y-143182571D02*
X139501428Y-141682571D01*
X139858571Y-141682571D01*
X140072857Y-141754000D01*
X140215714Y-141896857D01*
X140287142Y-142039714D01*
X140358571Y-142325428D01*
X140358571Y-142539714D01*
X140287142Y-142825428D01*
X140215714Y-142968285D01*
X140072857Y-143111142D01*
X139858571Y-143182571D01*
X139501428Y-143182571D01*
X142644285Y-142396857D02*
X142858571Y-142468285D01*
X142930000Y-142539714D01*
X143001428Y-142682571D01*
X143001428Y-142896857D01*
X142930000Y-143039714D01*
X142858571Y-143111142D01*
X142715714Y-143182571D01*
X142144285Y-143182571D01*
X142144285Y-141682571D01*
X142644285Y-141682571D01*
X142787142Y-141754000D01*
X142858571Y-141825428D01*
X142930000Y-141968285D01*
X142930000Y-142111142D01*
X142858571Y-142254000D01*
X142787142Y-142325428D01*
X142644285Y-142396857D01*
X142144285Y-142396857D01*
X143930000Y-142468285D02*
X143930000Y-143182571D01*
X143430000Y-141682571D02*
X143930000Y-142468285D01*
X144430000Y-141682571D01*
X146072857Y-143182571D02*
X146072857Y-141682571D01*
X147287142Y-142396857D02*
X147501428Y-142468285D01*
X147572857Y-142539714D01*
X147644285Y-142682571D01*
X147644285Y-142896857D01*
X147572857Y-143039714D01*
X147501428Y-143111142D01*
X147358571Y-143182571D01*
X146787142Y-143182571D01*
X146787142Y-141682571D01*
X147287142Y-141682571D01*
X147430000Y-141754000D01*
X147501428Y-141825428D01*
X147572857Y-141968285D01*
X147572857Y-142111142D01*
X147501428Y-142254000D01*
X147430000Y-142325428D01*
X147287142Y-142396857D01*
X146787142Y-142396857D01*
X148287142Y-143182571D02*
X148287142Y-141682571D01*
X148787142Y-142754000D01*
X149287142Y-141682571D01*
X149287142Y-143182571D01*
D11*
X154813000Y-113030000D03*
X154813000Y-110490000D03*
X154813000Y-107950000D03*
X154813000Y-105410000D03*
X154813000Y-102870000D03*
X154813000Y-100330000D03*
X154813000Y-97790000D03*
D12*
X154813000Y-95250000D03*
X177673000Y-95250000D03*
D11*
X177673000Y-97790000D03*
X177673000Y-100330000D03*
X177673000Y-102870000D03*
X177673000Y-105410000D03*
X177673000Y-107950000D03*
X177673000Y-110490000D03*
X177673000Y-113030000D03*
D13*
X158597600Y-88071960D03*
D14*
X154417600Y-88071960D03*
D15*
X159372300Y-140022580D03*
X177152300Y-132402580D03*
X161912300Y-140022580D03*
X174612300Y-132402580D03*
X164452300Y-140022580D03*
X172072300Y-132402580D03*
X166992300Y-140022580D03*
X169532300Y-132402580D03*
X169532300Y-140022580D03*
X166992300Y-132402580D03*
X172072300Y-140022580D03*
X164452300Y-132402580D03*
X174612300Y-140022580D03*
X161912300Y-132402580D03*
X177152300Y-140022580D03*
D16*
X159372300Y-132402580D03*
D15*
X142575280Y-91315540D03*
X150195280Y-109095540D03*
X142575280Y-93855540D03*
X150195280Y-106555540D03*
X142575280Y-96395540D03*
X150195280Y-104015540D03*
X142575280Y-98935540D03*
X150195280Y-101475540D03*
X142575280Y-101475540D03*
X150195280Y-98935540D03*
X142575280Y-104015540D03*
X150195280Y-96395540D03*
X142575280Y-106555540D03*
X150195280Y-93855540D03*
X142575280Y-109095540D03*
D16*
X150195280Y-91315540D03*
D15*
X132976620Y-121942860D03*
X148216620Y-114322860D03*
X135516620Y-121942860D03*
X145676620Y-114322860D03*
X138056620Y-121942860D03*
X143136620Y-114322860D03*
X140596620Y-121942860D03*
X140596620Y-114322860D03*
X143136620Y-121942860D03*
X138056620Y-114322860D03*
X145676620Y-121942860D03*
X135516620Y-114322860D03*
X148216620Y-121942860D03*
D16*
X132976620Y-114322860D03*
D15*
X145181320Y-133319520D03*
X129941320Y-125699520D03*
X142641320Y-133319520D03*
X132481320Y-125699520D03*
X140101320Y-133319520D03*
X135021320Y-125699520D03*
X137561320Y-133319520D03*
X137561320Y-125699520D03*
X135021320Y-133319520D03*
X140101320Y-125699520D03*
X132481320Y-133319520D03*
X142641320Y-125699520D03*
X129941320Y-133319520D03*
D16*
X145181320Y-125699520D03*
D13*
X181991000Y-110363000D03*
X181991000Y-108204000D03*
X162123120Y-88023700D03*
X164663120Y-88023700D03*
X167203120Y-88023700D03*
X169743120Y-88023700D03*
X151770080Y-124655580D03*
X151770080Y-127195580D03*
X151770080Y-129735580D03*
X151770080Y-142435580D03*
X151770080Y-139895580D03*
X151770080Y-137355580D03*
X151770080Y-132275580D03*
X151770080Y-134815580D03*
X181864000Y-100203000D03*
X182245000Y-95377000D03*
X132798820Y-110576360D03*
X132798820Y-108036360D03*
X132798820Y-105496360D03*
X132798820Y-92796360D03*
X132798820Y-95336360D03*
X132798820Y-97876360D03*
X132798820Y-102956360D03*
X132798820Y-100416360D03*
D17*
X177800000Y-100203000D02*
X177673000Y-100330000D01*
X181864000Y-100203000D02*
X177800000Y-100203000D01*
X154417600Y-94854600D02*
X154813000Y-95250000D01*
X154417600Y-88071960D02*
X154417600Y-94854600D01*
X145818860Y-88071960D02*
X142575280Y-91315540D01*
X154417600Y-88071960D02*
X145818860Y-88071960D01*
X133776619Y-122742859D02*
X133776619Y-122775879D01*
X132976620Y-121942860D02*
X133776619Y-122742859D01*
X133776619Y-122775879D02*
X134726680Y-123725940D01*
X134726680Y-123725940D02*
X145986500Y-123725940D01*
X145986500Y-123725940D02*
X147413980Y-125153420D01*
X147413980Y-131086860D02*
X145181320Y-133319520D01*
X147413980Y-125153420D02*
X147413980Y-131086860D01*
X142575280Y-91315540D02*
X135953500Y-91315540D01*
X135953500Y-91315540D02*
X134393940Y-89755980D01*
X134393940Y-89755980D02*
X130766820Y-89755980D01*
X130766820Y-89755980D02*
X129385060Y-91137740D01*
X129385060Y-118351300D02*
X132976620Y-121942860D01*
X129385060Y-91137740D02*
X129385060Y-118351300D01*
X145181320Y-134450890D02*
X150091140Y-139360710D01*
X145181320Y-133319520D02*
X145181320Y-134450890D01*
X150091140Y-139360710D02*
X150091140Y-142928340D01*
X150931881Y-143769081D02*
X153172159Y-143769081D01*
X150091140Y-142928340D02*
X150931881Y-143769081D01*
X156918660Y-140022580D02*
X159372300Y-140022580D01*
X153172159Y-143769081D02*
X156918660Y-140022580D01*
X153980501Y-112197501D02*
X153980501Y-112070501D01*
X154813000Y-113030000D02*
X153980501Y-112197501D01*
X153980501Y-112070501D02*
X152654000Y-110744000D01*
X152654000Y-106474260D02*
X150195280Y-104015540D01*
X152654000Y-110744000D02*
X152654000Y-106474260D01*
X132976620Y-114322860D02*
X132976620Y-114071400D01*
X132976620Y-114071400D02*
X136227820Y-110820200D01*
X136227820Y-100203000D02*
X142575280Y-93855540D01*
X136227820Y-110820200D02*
X136227820Y-100203000D01*
X138056620Y-100914200D02*
X142575280Y-96395540D01*
X138056620Y-114322860D02*
X138056620Y-100914200D01*
X143136620Y-114322860D02*
X143136620Y-112029240D01*
X143136620Y-112029240D02*
X140078460Y-108971080D01*
X140078460Y-101432360D02*
X142575280Y-98935540D01*
X140078460Y-108971080D02*
X140078460Y-101432360D01*
X142575280Y-101475540D02*
X146189700Y-101475540D01*
X146189700Y-101475540D02*
X148102320Y-103388160D01*
X148102320Y-109032402D02*
X152095200Y-113025282D01*
X148102320Y-103388160D02*
X148102320Y-109032402D01*
X152095200Y-113025282D02*
X152095200Y-119181880D01*
X152095200Y-119181880D02*
X150848060Y-120429020D01*
X147190460Y-120429020D02*
X145676620Y-121942860D01*
X150848060Y-120429020D02*
X147190460Y-120429020D01*
X143238220Y-119301260D02*
X140596620Y-121942860D01*
X150271480Y-119301260D02*
X143238220Y-119301260D01*
X150855680Y-118717060D02*
X150271480Y-119301260D01*
X150855680Y-113469420D02*
X150855680Y-118717060D01*
X145290540Y-104015540D02*
X146916140Y-105641140D01*
X142575280Y-104015540D02*
X145290540Y-104015540D01*
X146916140Y-105641140D02*
X146916140Y-109440980D01*
X146916140Y-109440980D02*
X149588121Y-112112961D01*
X149588121Y-112112961D02*
X149588121Y-112201861D01*
X149588121Y-112201861D02*
X150855680Y-113469420D01*
X143706650Y-106555540D02*
X145982490Y-108831380D01*
X142575280Y-106555540D02*
X143706650Y-106555540D01*
X145982490Y-110058908D02*
X149837140Y-113913558D01*
X145982490Y-108831380D02*
X145982490Y-110058908D01*
X149837140Y-113913558D02*
X149837140Y-117784880D01*
X149837140Y-117784880D02*
X149362160Y-118259860D01*
X139199620Y-118259860D02*
X135516620Y-121942860D01*
X149362160Y-118259860D02*
X139199620Y-118259860D01*
M02*
