M48
; DRILL file {KiCad (5.1.4)-1} date 2/18/2020 05:06:47
; FORMAT={-:-/ absolute / inch / decimal}
; #@! TF.CreationDate,2020-02-18T05:06:47-05:00
; #@! TF.GenerationSoftware,Kicad,Pcbnew,(5.1.4)-1
FMAT,2
INCH
T1C0.0300
T2C0.0315
T3C0.0437
%
G90
G05
T1
X6.3828Y-3.4655
X6.4828Y-3.4655
X6.5828Y-3.4655
X6.6828Y-3.4655
X7.175Y-3.755
X7.165Y-4.26
X7.165Y-4.345
X5.9752Y-4.9077
X5.9752Y-5.0077
X5.9752Y-5.1077
X5.9752Y-5.2077
X5.9752Y-5.3077
X5.9752Y-5.4077
X5.9752Y-5.5077
X5.9752Y-5.6077
X5.2283Y-3.6534
X5.2283Y-3.7534
X5.2283Y-3.8534
X5.2283Y-3.9534
X5.2283Y-4.0534
X5.2283Y-4.1534
X5.2283Y-4.2534
X5.2283Y-4.3534
X6.0794Y-3.4674
X6.244Y-3.4674
X7.16Y-3.945
T2
X6.2745Y-5.2127
X6.2745Y-5.5127
X6.3745Y-5.2127
X6.3745Y-5.5127
X6.4745Y-5.2127
X6.4745Y-5.5127
X6.5745Y-5.2127
X6.5745Y-5.5127
X6.6745Y-5.2127
X6.6745Y-5.5127
X6.7745Y-5.2127
X6.7745Y-5.5127
X6.8745Y-5.2127
X6.8745Y-5.5127
X6.9745Y-5.2127
X6.9745Y-5.5127
X5.1158Y-4.9488
X5.1158Y-5.2488
X5.2158Y-4.9488
X5.2158Y-5.2488
X5.3158Y-4.9488
X5.3158Y-5.2488
X5.4158Y-4.9488
X5.4158Y-5.2488
X5.5158Y-4.9488
X5.5158Y-5.2488
X5.6158Y-4.9488
X5.6158Y-5.2488
X5.7158Y-4.9488
X5.7158Y-5.2488
X5.2353Y-4.5009
X5.2353Y-4.8009
X5.3353Y-4.5009
X5.3353Y-4.8009
X5.4353Y-4.5009
X5.4353Y-4.8009
X5.5353Y-4.5009
X5.5353Y-4.8009
X5.6353Y-4.5009
X5.6353Y-4.8009
X5.7353Y-4.5009
X5.7353Y-4.8009
X5.8353Y-4.5009
X5.8353Y-4.8009
X5.6132Y-3.5951
X5.6132Y-3.6951
X5.6132Y-3.7951
X5.6132Y-3.8951
X5.6132Y-3.9951
X5.6132Y-4.0951
X5.6132Y-4.1951
X5.6132Y-4.2951
X5.9132Y-3.5951
X5.9132Y-3.6951
X5.9132Y-3.7951
X5.9132Y-3.8951
X5.9132Y-3.9951
X5.9132Y-4.0951
X5.9132Y-4.1951
X5.9132Y-4.2951
T3
X6.095Y-3.75
X6.095Y-3.85
X6.095Y-3.95
X6.095Y-4.05
X6.095Y-4.15
X6.095Y-4.25
X6.095Y-4.35
X6.095Y-4.45
X6.995Y-3.75
X6.995Y-3.85
X6.995Y-3.95
X6.995Y-4.05
X6.995Y-4.15
X6.995Y-4.25
X6.995Y-4.35
X6.995Y-4.45
T0
M30
